<svg width="399" height="78" fill="none" xmlns="http://www.w3.org/2000/svg"><path d="m12.3 40.83 8.34 4.61v7.38l22.59 14.29L64.8 53.05v-8l7.48-4.26v17.18l-29.13 19.3L12.3 58.2V40.83z" fill="#5953A3"/><path d="m42.45 0 7.81 5.07-33.04 21.11 26.19 17.61 24.92-15.88-8.13-5.31-15.61 9.92-8.98-5.53 23.95-16.03 25.35 16.83-40.75 27.22L2.07 28.08 0 26.76 42.45 0z" fill="#5953A3"/><path d="M2.45 27.75v15.27H.76V55h1.28v1.08h3.49v-.91h1.29V43.23H5.09V27.92M126.67 38h5.25l-9.45-24.815h-5.6L107.35 38h5.11l2.065-5.67h10.08L126.67 38zm-7.105-19.46 3.43 9.38h-6.86l3.43-9.38zM163.479 38V13.185h-6.58l-7.28 17.92-7.455-17.92h-6.37V38h4.62V20.745L147.554 38h4.025l7.14-17.395V38h4.76zm6.374-24.815V38h9.59c4.655 0 7.665-2.905 7.665-6.93 0-3.08-1.96-5.285-4.375-5.88 2.065-.7 3.605-2.765 3.605-5.32 0-3.85-2.73-6.685-7.56-6.685h-8.925zm4.76 10.255v-6.195h3.395c2.345 0 3.57 1.19 3.57 3.08 0 1.89-1.33 3.115-3.535 3.115h-3.43zm0 10.535V27.43h3.99c2.415 0 3.675 1.365 3.675 3.325 0 1.995-1.4 3.22-3.745 3.22h-3.92zM196.815 38V13.185h-4.9V38h4.9zm24.632-20.23v-4.585h-20.545v4.585h7.84V38h4.865V17.77h7.84zm9 20.23V13.185h-4.9V38h4.9zm9.896-12.425c0-5.6 3.92-8.26 7.735-8.26 3.85 0 7.77 2.66 7.77 8.26s-3.92 8.26-7.77 8.26c-3.815 0-7.735-2.66-7.735-8.26zm-5.005.035c0 7.98 6.02 12.915 12.74 12.915 6.755 0 12.775-4.935 12.775-12.915 0-8.015-6.02-12.95-12.775-12.95-6.72 0-12.74 4.935-12.74 12.95zM286.916 38V13.185h-4.83V29.6l-10.325-16.415h-6.02V38h4.83V20.395L281.841 38h5.075zm5.761-2.94a3.197 3.197 0 0 0 3.185 3.185c1.785 0 3.22-1.435 3.22-3.185s-1.435-3.185-3.22-3.185a3.197 3.197 0 0 0-3.185 3.185zM326.046 38V25.085h-12.39v4.2h7.84c-.28 1.75-2.065 4.83-6.65 4.83-4.165 0-7.84-2.905-7.84-8.505 0-5.88 4.06-8.435 7.805-8.435 4.025 0 6.09 2.555 6.72 4.76l4.62-1.645c-1.225-3.815-4.83-7.63-11.34-7.63-6.72 0-12.705 4.935-12.705 12.95s5.705 12.915 12.39 12.915c3.745 0 6.195-1.68 7.315-3.36l.315 2.835h3.92zm14.849.56c5.32 0 9.555-3.255 9.555-9.345v-16.03h-4.83v15.68c0 3.255-1.785 4.97-4.725 4.97-2.87 0-4.69-1.715-4.69-4.97v-15.68h-4.83v16.03c0 6.09 4.235 9.345 9.52 9.345zm27.943-.56h5.39l-5.32-10.15c3.255-.945 5.285-3.57 5.285-7.035 0-4.305-3.08-7.63-7.91-7.63h-9.695V38h4.865v-9.555h2.52L368.838 38zm-7.385-13.72v-6.895h3.92c2.45 0 3.885 1.365 3.885 3.465 0 2.03-1.435 3.43-3.885 3.43h-3.92zm26.985 14.28c5.32 0 9.555-3.255 9.555-9.345v-16.03h-4.83v15.68c0 3.255-1.785 4.97-4.725 4.97-2.87 0-4.69-1.715-4.69-4.97v-15.68h-4.83v16.03c0 6.09 4.235 9.345 9.52 9.345z" fill="#5953A3"/><path d="M139.76 60.122V68h2.548v-7.878l6.5-10.556h-2.912l-4.784 8.216-4.784-8.216h-3.068l6.5 10.556zm15.972 6.084c-2.08 0-3.9-1.56-3.9-4.472 0-2.886 1.82-4.446 3.9-4.446s3.9 1.56 3.9 4.446c0 2.912-1.82 4.472-3.9 4.472zm0-11.102c-3.744 0-6.396 2.834-6.396 6.63 0 3.822 2.652 6.656 6.396 6.656 3.744 0 6.396-2.834 6.396-6.656 0-3.796-2.652-6.63-6.396-6.63zm19.198 11.388c0 .52.052 1.222.104 1.508h2.34a21.04 21.04 0 0 1-.13-2.314V55.494H174.8v7.54c0 1.898-.988 3.198-2.964 3.198-2.054 0-2.834-1.508-2.834-3.224v-7.514h-2.444v7.878c0 2.834 1.768 5.018 4.68 5.018 1.456 0 3.016-.598 3.692-1.898zm14.987-11.128a4.599 4.599 0 0 0-.806-.078c-1.274 0-2.834.468-3.744 2.392v-2.184h-2.392V68h2.444v-6.266c0-2.756 1.378-3.848 3.432-3.848.338 0 .702.026 1.066.078v-2.6zM213.66 68v-2.392h-8.71V49.566h-2.548V68h11.258zm5.745-7.54c.104-1.612 1.352-3.198 3.406-3.198 2.21 0 3.38 1.404 3.432 3.198h-6.838zm7.202 3.25c-.468 1.404-1.482 2.522-3.51 2.522-2.106 0-3.718-1.56-3.77-3.796h9.412c.026-.156.052-.468.052-.78 0-3.9-2.158-6.552-6.006-6.552-3.146 0-5.98 2.678-5.98 6.604 0 4.238 2.938 6.682 6.292 6.682 2.912 0 4.914-1.742 5.616-3.952l-2.106-.728zm6.084.936c0 1.976 1.638 3.744 4.186 3.744 2.236 0 3.484-1.196 4.03-2.08 0 .91.078 1.378.13 1.69h2.392c-.052-.312-.156-.962-.156-2.054V59.68c0-2.444-1.456-4.576-5.2-4.576-2.704 0-4.862 1.664-5.122 4.056l2.34.546c.156-1.456 1.118-2.522 2.834-2.522 1.898 0 2.704 1.014 2.704 2.236 0 .442-.208.832-.962.936l-3.38.494c-2.158.312-3.796 1.56-3.796 3.796zm4.524 1.69c-1.248 0-2.028-.884-2.028-1.82 0-1.118.78-1.716 1.82-1.872l3.822-.572v.572c0 2.73-1.612 3.692-3.614 3.692zm18.367-10.972a4.599 4.599 0 0 0-.806-.078c-1.274 0-2.834.468-3.744 2.392v-2.184h-2.392V68h2.444v-6.266c0-2.756 1.378-3.848 3.432-3.848.338 0 .702.026 1.066.078v-2.6zm6.609 5.408c0-1.898.988-3.432 2.912-3.432 2.184 0 2.912 1.404 2.912 3.146V68h2.444v-7.93c0-2.782-1.482-4.94-4.472-4.94-1.456 0-2.938.598-3.848 2.158v-1.794h-2.392V68h2.444v-7.228zM278.325 68V55.494h-2.418V68h2.418zm-2.964-17.238c0 .962.78 1.742 1.742 1.742.988 0 1.768-.78 1.768-1.742 0-.988-.78-1.768-1.768-1.768-.962 0-1.742.78-1.742 1.768zm11.126 10.01c0-1.898.988-3.432 2.912-3.432 2.184 0 2.912 1.404 2.912 3.146V68h2.444v-7.93c0-2.782-1.482-4.94-4.472-4.94-1.456 0-2.938.598-3.848 2.158v-1.794h-2.392V68h2.444v-7.228zm12.805 7.904c.312 2.678 2.652 4.654 5.772 4.654 4.706 0 6.266-3.094 6.266-6.266v-11.57h-2.418v1.742c-.624-1.248-1.924-1.976-3.848-1.976-3.432 0-5.746 2.704-5.746 6.084 0 3.536 2.418 6.058 5.746 6.058 1.872 0 3.224-.91 3.822-2.054v1.794c0 2.704-1.196 4.056-3.822 4.056-1.898 0-3.224-1.326-3.406-3.068l-2.366.546zm6.136-3.328c-2.21 0-3.614-1.56-3.614-4.004 0-2.418 1.456-4.004 3.614-4.004 2.106 0 3.562 1.586 3.562 4.004 0 2.418-1.456 4.004-3.562 4.004zM337.88 68h2.756l-7.332-18.434h-2.938L323.034 68h2.73l1.95-5.148h8.164L337.88 68zm-6.11-15.782 3.198 8.268h-6.344l3.146-8.268zm15.064 20.722v-6.63c.676 1.118 2.132 2.028 4.056 2.028 3.666 0 5.824-2.886 5.824-6.604 0-3.64-2.002-6.526-5.746-6.526-2.028 0-3.51.988-4.186 2.236v-1.95h-2.366V72.94h2.418zm7.384-11.206c0 2.574-1.43 4.42-3.692 4.42-2.236 0-3.718-1.846-3.718-4.42 0-2.496 1.482-4.368 3.718-4.368 2.288 0 3.692 1.872 3.692 4.368zm9.588 11.206v-6.63c.676 1.118 2.132 2.028 4.056 2.028 3.666 0 5.824-2.886 5.824-6.604 0-3.64-2.002-6.526-5.746-6.526-2.028 0-3.51.988-4.186 2.236v-1.95h-2.366V72.94h2.418zm7.384-11.206c0 2.574-1.43 4.42-3.692 4.42-2.236 0-3.718-1.846-3.718-4.42 0-2.496 1.482-4.368 3.718-4.368 2.288 0 3.692 1.872 3.692 4.368z" fill="#9C9CA0"/></svg>